<?xml version="1.0" standalone="no"?><!DOCTYPE svg PUBLIC "-//W3C//DTD SVG 1.1//EN" "http://www.w3.org/Graphics/SVG/1.1/DTD/svg11.dtd"><svg t="1691374917828" class="icon" viewBox="0 0 1024 1024" version="1.1" xmlns="http://www.w3.org/2000/svg" p-id="19713" xmlns:xlink="http://www.w3.org/1999/xlink" width="20" height="20"><path d="M853.333333 739.555556H170.666667c-96.711111 0-170.666667-73.955556-170.666667-170.666667V170.666667c0-96.711111 73.955556-170.666667 170.666667-170.666667h682.666666c96.711111 0 170.666667 73.955556 170.666667 170.666667v398.222222c0 96.711111-73.955556 170.666667-170.666667 170.666667zM170.666667 85.333333c-45.511111 0-85.333333 39.822222-85.333334 85.333334v398.222222c0 45.511111 39.822222 85.333333 85.333334 85.333333h682.666666c45.511111 0 85.333333-39.822222 85.333334-85.333333V170.666667c0-45.511111-39.822222-85.333333-85.333334-85.333334H170.666667zM56.888889 955.733333c0-28.444444 17.066667-45.511111 45.511111-45.511111h824.888889c22.755556 0 45.511111 17.066667 45.511111 45.511111 0 22.755556-17.066667 45.511111-45.511111 45.511111H102.4c-28.444444-5.688889-45.511111-22.755556-45.511111-45.511111z" fill="#6580A8" p-id="19714"></path><path d="M523.377778 170.666667c125.155556 0 210.488889 79.644444 210.488889 199.111111S648.533333 568.888889 517.688889 568.888889H352.711111V170.666667h170.666667zM455.111111 489.244444h73.955556c62.577778 0 108.088889-45.511111 108.088889-119.466666 0-68.266667-45.511111-119.466667-108.088889-119.466667H455.111111v238.933333z" fill="#6580A8" p-id="19715"></path></svg>