<?xml version="1.0" standalone="no"?><!DOCTYPE svg PUBLIC "-//W3C//DTD SVG 1.1//EN" "http://www.w3.org/Graphics/SVG/1.1/DTD/svg11.dtd"><svg t="1691374718631" class="icon" viewBox="0 0 1293 1024" version="1.1" xmlns="http://www.w3.org/2000/svg" p-id="10979" xmlns:xlink="http://www.w3.org/1999/xlink" width="25.25390625" height="20"><path d="M1220.27799102 393.00209776a44.40266311 44.40266311 0 0 0-81.47823881 35.36678517 534.64430577 534.64430577 0 0 1-43.88484741 505.23239704 44.40266311 44.40266311 0 0 0 34.35704534 68.79176417 44.35088118 44.35088118 0 0 0 39.69054339-19.85821749 623.60497661 623.60497661 0 0 0 51.31549749-589.48094696l0-0.05178193zM649.95620968 107.42695464c77.15448059-0.20712653 153.40278518 16.51830875 223.38552415 48.95943824a44.45444384 44.45444384 0 0 0 37.28270224-80.67562549A616.04487229 616.04487229 0 0 0 649.95620968 18.62162961C307.36960108 18.62162961 28.57783931 297.54284561 28.57783931 640.46603376a619.61779792 619.61779792 0 0 0 102.47564917 342.01701095 44.35088118 44.35088118 0 1 0 74.04758994-48.93354667 531.04548978 531.04548978 0 0 1-87.7696948-293.08346428C117.33138362 346.55406457 356.25136702 107.42695464 649.95620968 107.42695464z" fill="#6580A8" p-id="10980"></path><path d="M1014.21338895 238.58957273l-189.28738608 186.46529303c-45.67131022-35.15965986-102.37208652-56.93379318-164.66526815-56.93379317C511.85486685 368.14696295 391.04855576 487.16681123 391.04855576 633.52730903 391.04855576 779.81013331 511.85486686 898.9076539 660.26073472 898.9076539c148.40586786 0 269.2639609-119.04573986 269.26395969-265.38034487a260.51288178 260.51288178 0 0 0-43.88484741-144.31512652l191.43632001-188.6660077c17.34681244-17.08790518 17.34681244-44.84280532 0-61.95660208a44.92047762 44.92047762 0 0 0-62.86277806 0zM660.26073473 811.26741331c-99.44642962 0-180.30329006-79.71766636-180.30329128-177.71421392 0-98.02243792 80.85686045-177.74010429 180.30329128-177.7401043 99.42053925 0 180.35507201 79.74355794 180.35507199 177.7401043s-80.93453274 177.71421392-180.35507199 177.71421392z" fill="#6580A8" p-id="10981"></path></svg>