<?xml version="1.0" standalone="no"?><!DOCTYPE svg PUBLIC "-//W3C//DTD SVG 1.1//EN" "http://www.w3.org/Graphics/SVG/1.1/DTD/svg11.dtd"><svg t="1691374777245" class="icon" viewBox="0 0 1024 1024" version="1.1" xmlns="http://www.w3.org/2000/svg" p-id="13195" xmlns:xlink="http://www.w3.org/1999/xlink" width="20" height="20"><path d="M503.880381 394.541506l-28.126682 100.443292-1.087949 6.3997a45.309876 45.309876 0 0 0 44.38192 47.325781c0.735966 0 1.471931 0 2.239895-0.063997l108.090933-27.838695a38.62219 38.62219 0 0 0 20.959017-10.751496L1011.40859 149.017015a41.278065 41.278065 0 0 0-2.079902-58.749246L934.324204 15.295283a41.694046 41.694046 0 0 0-58.781245-2.015905L514.503883 374.318454a38.558193 38.558193 0 0 0-10.623502 20.25505zM903.957627 75.388466l45.309876 45.309876-30.942549 30.94255-45.309877-45.277878z m-339.184101 339.184101l262.995672-262.963674 45.309876 45.277878-262.803681 262.803681-62.781057 16.575223z" fill="#6580A8" p-id="13196"></path><path d="M458.378514 361.903036l72.95658-72.95658c-6.3997-0.543975-12.831399-0.959955-19.359093-0.959955a223.9895 223.9895 0 1 0 223.989501 223.9895c0-6.271706-0.447979-12.479415-0.959955-18.623127l-73.276566 73.308564a159.608518 159.608518 0 1 1-203.350467-204.790401z" fill="#6580A8" p-id="13197"></path><path d="M981.777979 309.937472l-49.469681 49.469681A441.259316 441.259316 0 0 1 959.955002 511.976001a452.362795 452.362795 0 1 1-294.002219-419.372342l49.405685-49.405684A511.336031 511.336031 0 1 0 1023.952002 511.976001a507.336219 507.336219 0 0 0-42.174023-202.038529z" fill="#6580A8" p-id="13198"></path></svg>