<?xml version="1.0" standalone="no"?><!DOCTYPE svg PUBLIC "-//W3C//DTD SVG 1.1//EN" "http://www.w3.org/Graphics/SVG/1.1/DTD/svg11.dtd"><svg t="1691373839979" class="icon" viewBox="0 0 1024 1024" version="1.1" xmlns="http://www.w3.org/2000/svg" p-id="6807" xmlns:xlink="http://www.w3.org/1999/xlink" width="20" height="20"><path d="M851.163429 109.714286C906.130286 109.714286 950.857143 155.282286 950.857143 211.126857v464.566857c0 55.954286-44.726857 101.412571-99.693714 101.412572h-319.268572v75.117714H731.428571c11.008 0 19.931429 9.179429 19.931429 20.589714a20.224 20.224 0 0 1-19.931429 20.589715H292.571429a20.224 20.224 0 0 1-19.931429-20.589715c0-11.410286 8.923429-20.589714 19.931429-20.589714h199.497142v-75.117714H172.836571C117.869714 777.106286 73.142857 731.538286 73.142857 675.693714V211.126857C73.142857 155.172571 117.869714 109.714286 172.836571 109.714286h678.326858z m-92.928 180.004571h-144.310858a20.224 20.224 0 0 0-19.931428 20.589714c0 11.410286 8.923429 20.589714 19.931428 20.589715h96.950858l-148.845715 156.269714-111.36-116.955429a20.004571 20.004571 0 0 0-28.416 0l-193.462857 202.971429a21.065143 21.065143 0 0 0 0.219429 29.147429 19.565714 19.565714 0 0 0 13.970285 5.924571c5.12 0 10.276571-2.084571 14.189715-6.217143l179.273143-188.013714 111.36 116.809143c7.533714 7.899429 20.882286 7.899429 28.416 0l162.084571-170.057143v98.889143c0 11.373714 8.923429 20.589714 19.931429 20.589714a20.114286 20.114286 0 0 0 19.931428-20.48V310.308571a20.224 20.224 0 0 0-19.931428-20.589714z" fill="#6580A9" p-id="6808"></path></svg>