<?xml version="1.0" standalone="no"?><!DOCTYPE svg PUBLIC "-//W3C//DTD SVG 1.1//EN" "http://www.w3.org/Graphics/SVG/1.1/DTD/svg11.dtd"><svg t="1691374681413" class="icon" viewBox="0 0 1024 1024" version="1.1" xmlns="http://www.w3.org/2000/svg" p-id="10303" xmlns:xlink="http://www.w3.org/1999/xlink" width="20" height="20"><path d="M513 956.4c-246.1 0-446.3-200.2-446.3-446.3S266.9 63.8 513 63.8 959.3 264 959.3 510.1 759.1 956.4 513 956.4z m0-803.4c-196.9 0-357.1 160.2-357.1 357.1S316.1 867.2 513 867.2 870.1 707 870.1 510.1 709.9 153 513 153z" fill="#6580A8" p-id="10304"></path><path d="M513 660.9c-83.1 0-150.8-67.6-150.8-150.8S429.9 359.3 513 359.3 663.8 427 663.8 510.1 596.1 660.9 513 660.9z m0-212.3c-33.9 0-61.5 27.6-61.5 61.5s27.6 61.5 61.5 61.5 61.5-27.6 61.5-61.5-27.6-61.5-61.5-61.5z" fill="#6580A8" p-id="10305"></path><path d="M587.1 480.6c-11.4 0-22.8-4.4-31.6-13.1-17.4-17.4-17.4-45.7 0-63.1l118-118c17.4-17.4 45.7-17.4 63.1 0s17.4 45.7 0 63.1l-118 118c-8.6 8.8-20.1 13.1-31.5 13.1z" fill="#6580A8" p-id="10306"></path></svg>