<?xml version="1.0" standalone="no"?><!DOCTYPE svg PUBLIC "-//W3C//DTD SVG 1.1//EN" "http://www.w3.org/Graphics/SVG/1.1/DTD/svg11.dtd"><svg t="1691374761223" class="icon" viewBox="0 0 1024 1024" version="1.1" xmlns="http://www.w3.org/2000/svg" p-id="12980" xmlns:xlink="http://www.w3.org/1999/xlink" width="20" height="20"><path d="M512 56.888889a455.111111 455.111111 0 1 1 0 910.222222A455.111111 455.111111 0 0 1 512 56.888889z m0 56.888889a398.222222 398.222222 0 1 0 0 796.444444A398.222222 398.222222 0 0 0 512 113.777778z m211.797333 195.697778a17.066667 17.066667 0 0 1 0 13.084444l-113.038222 272.839111a28.444444 28.444444 0 0 1-15.36 15.36l-272.896 113.038222a17.066667 17.066667 0 0 1-22.300444-22.300444l113.038222-272.896a28.444444 28.444444 0 0 1 15.36-15.36l272.896-113.038222a17.066667 17.066667 0 0 1 22.300444 9.272889zM634.311111 389.575111l-173.112889 71.68-71.68 173.112889 173.112889-71.68 71.68-173.112889z" fill="#6580A8" p-id="12981"></path></svg>