<?xml version="1.0" standalone="no"?><!DOCTYPE svg PUBLIC "-//W3C//DTD SVG 1.1//EN" "http://www.w3.org/Graphics/SVG/1.1/DTD/svg11.dtd"><svg t="1691374994976" class="icon" viewBox="0 0 1024 1024" version="1.1" xmlns="http://www.w3.org/2000/svg" p-id="21976" xmlns:xlink="http://www.w3.org/1999/xlink" width="20" height="20"><path d="M1024 512c0 281.6-230.4 512-512 512S0 793.6 0 512 230.4 0 512 0s512 230.4 512 512zM345.6 297.6c-28.8-28.8-83.2-9.6-83.2 35.2v361.6c0 25.6 22.4 48 48 48s48-22.4 48-48v-243.2l118.4 118.4c19.2 19.2 48 19.2 67.2 0l118.4-118.4v243.2c0 25.6 22.4 48 48 48s48-22.4 48-48V332.8c0-41.6-51.2-64-83.2-35.2l-166.4 166.4-163.2-166.4z" opacity=".9" p-id="21977" fill="#6580A8"></path></svg>